Scott Pilgrim vs. the World (2010) 1080p AC3+DTS Eng.FR.NL-DMT

Vanaf 25 november in de bioscoop

Verenigde Staten

Actie / Avontuur

112 minuten

geregisseerd door Edgar Wright

met Michael Cera, Ellen Wong en Mary Elizabeth Winstead

Scott Pilgrim is een 23-jarige nonchalante goedzak, held (in z'n fantasie),
wannabe-rockster die bij z'n beste vriend Wallace Wells, de homo, woont.
In Toronto. En hij speelt bass in z'n eigen band "Sex Bob-Omb". Wanneer 'new girl in town'
Ramona V. Flowers arriveert, is Scott tot over z'n oren verliefd.
Maar om een afspraakje met haar te krijgen, moet hij de zeven exen van Ramona verslaan.

PLOT

Scott Pilgrim must defeat his new girlfriend's seven evil exes in order to win her heart. 
 
http://www.youtube.com/watch?v=xgOLmjhxVVU

MM:    http://www.moviemeter.nl/film/58233

IMDB:    http://www.imdb.com/title/tt0446029/

INFO

Source= 1080P
Video= 10920x1040
Audio 1= Eng DTS
Audio 2= Eng AC3
Muxer= NLUPPER (Enjoy)

General
Complete name                    : scott.vs.the.world.1080p.AC3.DTS.Eng.FR.NLsubs-DMT.mkv
Format                           : Matroska
File size                        : 8.45 GiB
Duration                         : 1h 52mn
Overall bit rate                 : 10.8 Mbps
Encoded date                     : UTC 2010-10-29 23:33:19
Writing application              : mkvmerge v4.3.0 ('Escape from the Island') built on Sep  5 2010 10:30:51
Writing library                  : libebml v1.0.0 + libmatroska v1.0.0

Video
ID                               : 1
Format                           : AVC
Format/Info                      : Advanced Video Codec
Format profile                   : High@L4.1
Format settings, CABAC           : Yes
Format settings, ReFrames        : 4 frames
Format settings, GOP             : M=4, N=16
Muxing mode                      : Container profile=Unknown@4.1
Codec ID                         : V_MPEG4/ISO/AVC
Duration                         : 1h 52mn
Bit rate                         : 8 616 Kbps
Width                            : 1 920 pixels
Height                           : 1 040 pixels
Display aspect ratio             : 16:9
Frame rate                       : 23.976 fps
Color space                      : YUV
Chroma subsampling               : 4:2:0
Bit depth                        : 8 bits
Scan type                        : Progressive
Bits/(Pixel*Frame)               : 0.180
Stream size                      : 6.59 GiB (78%)
Writing library                  : x264 core 105 r1724 b02df7b
Encoding settings                : cabac=1 / ref=4 / deblock=1:0:0 / analyse=0x3:0x133 / 
me=umh / subme=8 / psy=1 / psy_rd=1.00:0.00 / mixed_ref=1 / me_range=16 / chroma_me=1 / 
trellis=1 / 8x8dct=1 / cqm=0 / deadzone=21,11 / fast_pskip=1 / chroma_qp_offset=-2 / 
threads=24 / sliced_threads=0 / nr=0 / decimate=1 / interlaced=0 / constrained_intra=0 / 
bframes=3 / b_pyramid=2 / b_adapt=1 / b_bias=0 / direct=1 / weightb=1 / open_gop=0 / 
weightp=2 / keyint=250 / keyint_min=23 / scenecut=40 / intra_refresh=0 / rc=2pass / 
mbtree=0 / bitrate=8616 / ratetol=1.0 / qcomp=0.60 / qpmin=10 / qpmax=51 / qpstep=4 / 
cplxblur=20.0 / qblur=0.5 / ip_ratio=1.40 / pb_ratio=1.30 / aq=1:1.00
Language                         : English

Audio #1
ID                               : 2
Format                           : DTS
Format/Info                      : Digital Theater Systems
Muxing mode                      : Header stripping
Codec ID                         : A_DTS
Duration                         : 1h 52mn
Bit rate mode                    : Constant
Bit rate                         : 1 510 Kbps
Channel(s)                       : 6 channels
Channel positions                : Front: L C R, Side: L R, LFE
Sampling rate                    : 48.0 KHz
Bit depth                        : 24 bits
Stream size                      : 1.19 GiB (14%)
Title                            : DTS
Language                         : English

Audio #2
ID                               : 3
Format                           : AC-3
Format/Info                      : Audio Coding 3
Mode extension                   : CM (complete main)
Muxing mode                      : Header stripping
Codec ID                         : A_AC3
Duration                         : 1h 52mn
Bit rate mode                    : Constant
Bit rate                         : 640 Kbps
Channel(s)                       : 6 channels
Channel positions                : Front: L C R, Side: L R, LFE
Sampling rate                    : 48.0 KHz
Bit depth                        : 16 bits
Stream size                      : 515 MiB (6%)
Title                            : AC3 640
Language                         : English

Text #1
ID                               : 4
Format                           : UTF-8
Codec ID                         : S_TEXT/UTF8
Codec ID/Info                    : UTF-8 Plain Text
Title                            : Nederlands
Language                         : Dutch

Text #2
ID                               : 5
Format                           : UTF-8
Codec ID                         : S_TEXT/UTF8
Codec ID/Info                    : UTF-8 Plain Text
Title                            : English
Language                         : English

Text #3
ID                               : 6
Format                           : UTF-8
Codec ID                         : S_TEXT/UTF8
Codec ID/Info                    : UTF-8 Plain Text
Title                            : French
Language                         : French



